REM DIRINDEX 1\2\4\8,1\2\4\9,1\2\4\10,1\2\5\11,1\2\5\12,1\2\5\13,1\2\5\14,1\2\5\15,1\3\6\16,1\3\6\17,1\3\6\18,1\3\7\19,1\3\7\20,1\3\7\21,1\3\7\22,1\3\7\23
REM DIRNAME "folder01","folder02","folder03","folder04","folder05","folder06","folder07","folder08","folder09","folder10","folder11","folder12","folder13","folder14","folder15","folder16","folder17","folder18","folder19","folder20","folder21","folder22","folder23"
TITLE ""
FILE "LR_black_phrase_S08.mp3" MP3
  TRACK 01 AUDIO
    TITLE "0:"
    INDEX 01 00:00:00
  TRACK 02 AUDIO
    TITLE "19:cjc171_15701"
    INDEX 01 00:00:14
  TRACK 03 AUDIO
    TITLE "0:"
    INDEX 01 00:01:14
  TRACK 04 AUDIO
    TITLE "20:cjc171_15702"
    INDEX 01 00:01:55
  TRACK 05 AUDIO
    TITLE "0:"
    INDEX 01 00:04:10
  TRACK 06 AUDIO
    TITLE "21:cjc171_15703"
    INDEX 01 00:05:10
  TRACK 07 AUDIO
    TITLE "0:"
    INDEX 01 00:06:66
  TRACK 08 AUDIO
    TITLE "22:cjc171_15704"
    INDEX 01 00:07:30
  TRACK 09 AUDIO
    TITLE "0:"
    INDEX 01 00:09:21
  TRACK 10 AUDIO
    TITLE "23:cjc171_15705"
    INDEX 01 00:09:50
  TRACK 11 AUDIO
    TITLE "0:"
    INDEX 01 00:11:41
  TRACK 12 AUDIO
    TITLE "19:cjc171_15706"
    INDEX 01 00:12:47
  TRACK 13 AUDIO
    TITLE "0:"
    INDEX 01 00:13:62
  TRACK 14 AUDIO
    TITLE "20:cjc171_15707"
    INDEX 01 00:14:28
  TRACK 15 AUDIO
    TITLE "0:"
    INDEX 01 00:16:41
  TRACK 16 AUDIO
    TITLE "21:cjc171_15708"
    INDEX 01 00:17:44
  TRACK 17 AUDIO
    TITLE "0:"
    INDEX 01 00:19:27
  TRACK 18 AUDIO
    TITLE "22:cjc171_15709"
    INDEX 01 00:19:66
  TRACK 19 AUDIO
    TITLE "0:"
    INDEX 01 00:22:16
  TRACK 20 AUDIO
    TITLE "23:cjc171_15710"
    INDEX 01 00:22:47
  TRACK 21 AUDIO
    TITLE "0:"
    INDEX 01 00:24:68
  TRACK 22 AUDIO
    TITLE "19:cjc171_15711"
    INDEX 01 00:25:67
  TRACK 23 AUDIO
    TITLE "0:"
    INDEX 01 00:27:03
  TRACK 24 AUDIO
    TITLE "20:cjc171_15712"
    INDEX 01 00:27:40
  TRACK 25 AUDIO
    TITLE "0:"
    INDEX 01 00:28:71
  TRACK 26 AUDIO
    TITLE "21:cjc171_15713"
    INDEX 01 00:29:69
  TRACK 27 AUDIO
    TITLE "0:"
    INDEX 01 00:32:20
  TRACK 28 AUDIO
    TITLE "22:cjc171_15714"
    INDEX 01 00:32:55
  TRACK 29 AUDIO
    TITLE "0:"
    INDEX 01 00:35:16
  TRACK 30 AUDIO
    TITLE "23:cjc171_15715"
    INDEX 01 00:35:38
  TRACK 31 AUDIO
    TITLE "0:"
    INDEX 01 00:37:72
  TRACK 32 AUDIO
    TITLE "19:cjc171_15716"
    INDEX 01 00:38:70
  TRACK 33 AUDIO
    TITLE "0:"
    INDEX 01 00:40:24
  TRACK 34 AUDIO
    TITLE "20:cjc171_15717"
    INDEX 01 00:40:61
  TRACK 35 AUDIO
    TITLE "0:"
    INDEX 01 00:42:42
  TRACK 36 AUDIO
    TITLE "21:cjc171_15718"
    INDEX 01 00:43:43
  TRACK 37 AUDIO
    TITLE "0:"
    INDEX 01 00:46:03
  TRACK 38 AUDIO
    TITLE "22:cjc171_15719"
    INDEX 01 00:46:38
  TRACK 39 AUDIO
    TITLE "0:"
    INDEX 01 00:48:72
  TRACK 40 AUDIO
    TITLE "23:cjc171_15720"
    INDEX 01 00:49:17
  TRACK 41 AUDIO
    TITLE "0:"
    INDEX 01 00:51:53
  TRACK 42 AUDIO
    TITLE "19:cjc171_15721"
    INDEX 01 00:52:52
  TRACK 43 AUDIO
    TITLE "0:"
    INDEX 01 00:53:63
  TRACK 44 AUDIO
    TITLE "20:cjc171_15722"
    INDEX 01 00:54:30
  TRACK 45 AUDIO
    TITLE "0:"
    INDEX 01 00:55:49
  TRACK 46 AUDIO
    TITLE "21:cjc171_15723"
    INDEX 01 00:56:50
  TRACK 47 AUDIO
    TITLE "0:"
    INDEX 01 00:58:23
  TRACK 48 AUDIO
    TITLE "22:cjc171_15724"
    INDEX 01 00:58:63
  TRACK 49 AUDIO
    TITLE "0:"
    INDEX 01 01:00:36
  TRACK 50 AUDIO
    TITLE "23:cjc171_15725"
    INDEX 01 01:00:67
  TRACK 51 AUDIO
    TITLE "0:"
    INDEX 01 01:02:41
  TRACK 52 AUDIO
    TITLE "19:cjc171_15726"
    INDEX 01 01:03:48
  TRACK 53 AUDIO
    TITLE "0:"
    INDEX 01 01:04:69
  TRACK 54 AUDIO
    TITLE "20:cjc171_15727"
    INDEX 01 01:05:33
  TRACK 55 AUDIO
    TITLE "0:"
    INDEX 01 01:07:50
  TRACK 56 AUDIO
    TITLE "21:cjc171_15728"
    INDEX 01 01:08:47
  TRACK 57 AUDIO
    TITLE "0:"
    INDEX 01 01:10:72
  TRACK 58 AUDIO
    TITLE "22:cjc171_15729"
    INDEX 01 01:11:38
  TRACK 59 AUDIO
    TITLE "0:"
    INDEX 01 01:14:20
  TRACK 60 AUDIO
    TITLE "23:cjc171_15730"
    INDEX 01 01:14:50
  TRACK 61 AUDIO
    TITLE "0:"
    INDEX 01 01:17:33
  TRACK 62 AUDIO
    TITLE "19:cjc171_15731"
    INDEX 01 01:18:32
  TRACK 63 AUDIO
    TITLE "0:"
    INDEX 01 01:19:69
  TRACK 64 AUDIO
    TITLE "20:cjc171_15732"
    INDEX 01 01:20:33
  TRACK 65 AUDIO
    TITLE "0:"
    INDEX 01 01:22:30
  TRACK 66 AUDIO
    TITLE "21:cjc171_15733"
    INDEX 01 01:23:29
  TRACK 67 AUDIO
    TITLE "0:"
    INDEX 01 01:25:22
  TRACK 68 AUDIO
    TITLE "22:cjc171_15734"
    INDEX 01 01:25:58
  TRACK 69 AUDIO
    TITLE "0:"
    INDEX 01 01:28:21
  TRACK 70 AUDIO
    TITLE "23:cjc171_15735"
    INDEX 01 01:28:42
  TRACK 71 AUDIO
    TITLE "0:"
    INDEX 01 01:31:03
  TRACK 72 AUDIO
    TITLE "19:cjc171_15736"
    INDEX 01 01:32:01
  TRACK 73 AUDIO
    TITLE "0:"
    INDEX 01 01:33:16
  TRACK 74 AUDIO
    TITLE "20:cjc171_15737"
    INDEX 01 01:33:55
  TRACK 75 AUDIO
    TITLE "0:"
    INDEX 01 01:36:18
  TRACK 76 AUDIO
    TITLE "21:cjc171_15738"
    INDEX 01 01:37:20
  TRACK 77 AUDIO
    TITLE "0:"
    INDEX 01 01:39:16
  TRACK 78 AUDIO
    TITLE "22:cjc171_15739"
    INDEX 01 01:39:54
  TRACK 79 AUDIO
    TITLE "0:"
    INDEX 01 01:41:47
  TRACK 80 AUDIO
    TITLE "23:cjc171_15740"
    INDEX 01 01:41:68
  TRACK 81 AUDIO
    TITLE "0:"
    INDEX 01 01:43:61
  TRACK 82 AUDIO
    TITLE "19:cjc171_15741"
    INDEX 01 01:44:63
  TRACK 83 AUDIO
    TITLE "0:"
    INDEX 01 01:46:03
  TRACK 84 AUDIO
    TITLE "20:cjc171_15742"
    INDEX 01 01:46:42
  TRACK 85 AUDIO
    TITLE "0:"
    INDEX 01 01:48:70
  TRACK 86 AUDIO
    TITLE "21:cjc171_15743"
    INDEX 01 01:49:60
  TRACK 87 AUDIO
    TITLE "0:"
    INDEX 01 01:51:39
  TRACK 88 AUDIO
    TITLE "22:cjc171_15744"
    INDEX 01 01:52:01
  TRACK 89 AUDIO
    TITLE "0:"
    INDEX 01 01:53:70
  TRACK 90 AUDIO
    TITLE "23:cjc171_15745"
    INDEX 01 01:54:24
  TRACK 91 AUDIO
    TITLE "0:"
    INDEX 01 01:56:17
  TRACK 92 AUDIO
    TITLE "19:cjc171_15746"
    INDEX 01 01:57:22
  TRACK 93 AUDIO
    TITLE "0:"
    INDEX 01 01:58:31
  TRACK 94 AUDIO
    TITLE "20:cjc171_15747"
    INDEX 01 01:58:69
  TRACK 95 AUDIO
    TITLE "0:"
    INDEX 01 02:01:04
  TRACK 96 AUDIO
    TITLE "21:cjc171_15748"
    INDEX 01 02:02:04
  TRACK 97 AUDIO
    TITLE "0:"
    INDEX 01 02:04:50
  TRACK 98 AUDIO
    TITLE "22:cjc171_15749"
    INDEX 01 02:05:14
  TRACK 99 AUDIO
    TITLE "0:"
    INDEX 01 02:07:03
  TRACK 100 AUDIO
    TITLE "23:cjc171_15750"
    INDEX 01 02:07:32
  TRACK 101 AUDIO
    TITLE "0:"
    INDEX 01 02:09:22
  TRACK 102 AUDIO
    TITLE "19:cjc171_15751"
    INDEX 01 02:10:19
  TRACK 103 AUDIO
    TITLE "0:"
    INDEX 01 02:11:46
  TRACK 104 AUDIO
    TITLE "20:cjc171_15752"
    INDEX 01 02:12:04
  TRACK 105 AUDIO
    TITLE "0:"
    INDEX 01 02:14:31
  TRACK 106 AUDIO
    TITLE "21:cjc171_15753"
    INDEX 01 02:15:30
  TRACK 107 AUDIO
    TITLE "0:"
    INDEX 01 02:17:39
  TRACK 108 AUDIO
    TITLE "22:cjc171_15754"
    INDEX 01 02:17:72
  TRACK 109 AUDIO
    TITLE "0:"
    INDEX 01 02:20:61
  TRACK 110 AUDIO
    TITLE "23:cjc171_15755"
    INDEX 01 02:21:05
  TRACK 111 AUDIO
    TITLE "0:"
    INDEX 01 02:23:67
  TRACK 112 AUDIO
    TITLE "19:cjc171_15756"
    INDEX 01 02:24:62
  TRACK 113 AUDIO
    TITLE "0:"
    INDEX 01 02:26:04
  TRACK 114 AUDIO
    TITLE "20:cjc171_15757"
    INDEX 01 02:26:40
  TRACK 115 AUDIO
    TITLE "0:"
    INDEX 01 02:29:20
  TRACK 116 AUDIO
    TITLE "21:cjc171_15758"
    INDEX 01 02:30:20
  TRACK 117 AUDIO
    TITLE "0:"
    INDEX 01 02:33:40
  TRACK 118 AUDIO
    TITLE "22:cjc171_15759"
    INDEX 01 02:34:00
  TRACK 119 AUDIO
    TITLE "0:"
    INDEX 01 02:36:56
  TRACK 120 AUDIO
    TITLE "23:cjc171_15760"
    INDEX 01 02:37:00
  TRACK 121 AUDIO
    TITLE "0:"
    INDEX 01 02:39:56
  TRACK 122 AUDIO
    TITLE "19:cjc171_15761"
    INDEX 01 02:40:55
  TRACK 123 AUDIO
    TITLE "0:"
    INDEX 01 02:41:65
  TRACK 124 AUDIO
    TITLE "20:cjc171_15762"
    INDEX 01 02:42:29
  TRACK 125 AUDIO
    TITLE "0:"
    INDEX 01 02:44:34
  TRACK 126 AUDIO
    TITLE "21:cjc171_15763"
    INDEX 01 02:45:33
  TRACK 127 AUDIO
    TITLE "0:"
    INDEX 01 02:48:02
  TRACK 128 AUDIO
    TITLE "22:cjc171_15764"
    INDEX 01 02:48:41
  TRACK 129 AUDIO
    TITLE "0:"
    INDEX 01 02:50:71
  TRACK 130 AUDIO
    TITLE "23:cjc171_15765"
    INDEX 01 02:51:24
  TRACK 131 AUDIO
    TITLE "0:"
    INDEX 01 02:53:52
  TRACK 132 AUDIO
    TITLE "19:cjc171_15766"
    INDEX 01 02:54:57
  TRACK 133 AUDIO
    TITLE "0:"
    INDEX 01 02:55:65
  TRACK 134 AUDIO
    TITLE "20:cjc171_15767"
    INDEX 01 02:56:21
  TRACK 135 AUDIO
    TITLE "0:"
    INDEX 01 02:58:57
  TRACK 136 AUDIO
    TITLE "21:cjc171_15768"
    INDEX 01 02:59:55
  TRACK 137 AUDIO
    TITLE "0:"
    INDEX 01 03:02:04
  TRACK 138 AUDIO
    TITLE "22:cjc171_15769"
    INDEX 01 03:02:45
  TRACK 139 AUDIO
    TITLE "0:"
    INDEX 01 03:04:66
  TRACK 140 AUDIO
    TITLE "23:cjc171_15770"
    INDEX 01 03:05:20
  TRACK 141 AUDIO
    TITLE "0:"
    INDEX 01 03:07:40
  TRACK 142 AUDIO
    TITLE "19:cjc171_15771"
    INDEX 01 03:08:40
  TRACK 143 AUDIO
    TITLE "0:"
    INDEX 01 03:09:49
  TRACK 144 AUDIO
    TITLE "20:cjc171_15772"
    INDEX 01 03:10:13
  TRACK 145 AUDIO
    TITLE "0:"
    INDEX 01 03:12:36
  TRACK 146 AUDIO
    TITLE "21:cjc171_15773"
    INDEX 01 03:13:35
  TRACK 147 AUDIO
    TITLE "0:"
    INDEX 01 03:15:36
  TRACK 148 AUDIO
    TITLE "22:cjc171_15774"
    INDEX 01 03:15:71
  TRACK 149 AUDIO
    TITLE "0:"
    INDEX 01 03:18:15
  TRACK 150 AUDIO
    TITLE "23:cjc171_15775"
    INDEX 01 03:18:36
  TRACK 151 AUDIO
    TITLE "0:"
    INDEX 01 03:20:55
  TRACK 152 AUDIO
    TITLE "19:cjc171_15776"
    INDEX 01 03:21:52
  TRACK 153 AUDIO
    TITLE "0:"
    INDEX 01 03:22:69
  TRACK 154 AUDIO
    TITLE "20:cjc171_15777"
    INDEX 01 03:23:28
  TRACK 155 AUDIO
    TITLE "0:"
    INDEX 01 03:26:03
  TRACK 156 AUDIO
    TITLE "21:cjc171_15778"
    INDEX 01 03:27:08
  TRACK 157 AUDIO
    TITLE "0:"
    INDEX 01 03:30:04
  TRACK 158 AUDIO
    TITLE "22:cjc171_15779"
    INDEX 01 03:30:40
  TRACK 159 AUDIO
    TITLE "0:"
    INDEX 01 03:33:05
  TRACK 160 AUDIO
    TITLE "23:cjc171_15780"
    INDEX 01 03:33:24
  TRACK 161 AUDIO
    TITLE "0:"
    INDEX 01 03:35:64
  TRACK 162 AUDIO
    TITLE "19:cjc171_15781"
    INDEX 01 03:36:64
  TRACK 163 AUDIO
    TITLE "0:"
    INDEX 01 03:37:69
  TRACK 164 AUDIO
    TITLE "20:cjc171_15782"
    INDEX 01 03:38:33
  TRACK 165 AUDIO
    TITLE "0:"
    INDEX 01 03:42:00
  TRACK 166 AUDIO
    TITLE "21:cjc171_15783"
    INDEX 01 03:42:74
  TRACK 167 AUDIO
    TITLE "0:"
    INDEX 01 03:44:67
  TRACK 168 AUDIO
    TITLE "22:cjc171_15784"
    INDEX 01 03:45:31
  TRACK 169 AUDIO
    TITLE "0:"
    INDEX 01 03:47:26
  TRACK 170 AUDIO
    TITLE "23:cjc171_15785"
    INDEX 01 03:47:56
  TRACK 171 AUDIO
    TITLE "0:"
    INDEX 01 03:49:49
  TRACK 172 AUDIO
    TITLE "19:cjc171_15786"
    INDEX 01 03:50:52
  TRACK 173 AUDIO
    TITLE "0:"
    INDEX 01 03:51:73
  TRACK 174 AUDIO
    TITLE "20:cjc171_15787"
    INDEX 01 03:52:37
  TRACK 175 AUDIO
    TITLE "0:"
    INDEX 01 03:55:06
  TRACK 176 AUDIO
    TITLE "21:cjc171_15788"
    INDEX 01 03:56:04
  TRACK 177 AUDIO
    TITLE "0:"
    INDEX 01 03:57:62
  TRACK 178 AUDIO
    TITLE "22:cjc171_15789"
    INDEX 01 03:58:28
  TRACK 179 AUDIO
    TITLE "0:"
    INDEX 01 04:00:15
  TRACK 180 AUDIO
    TITLE "23:cjc171_15790"
    INDEX 01 04:00:45
  TRACK 181 AUDIO
    TITLE "0:"
    INDEX 01 04:02:34
  TRACK 182 AUDIO
    TITLE "19:cjc171_15791"
    INDEX 01 04:03:33
  TRACK 183 AUDIO
    TITLE "0:"
    INDEX 01 04:04:46
  TRACK 184 AUDIO
    TITLE "20:cjc171_15792"
    INDEX 01 04:05:03
  TRACK 185 AUDIO
    TITLE "0:"
    INDEX 01 04:07:29
  TRACK 186 AUDIO
    TITLE "21:cjc171_15793"
    INDEX 01 04:08:30
  TRACK 187 AUDIO
    TITLE "0:"
    INDEX 01 04:10:02
  TRACK 188 AUDIO
    TITLE "22:cjc171_15794"
    INDEX 01 04:10:37
  TRACK 189 AUDIO
    TITLE "0:"
    INDEX 01 04:12:58
  TRACK 190 AUDIO
    TITLE "23:cjc171_15795"
    INDEX 01 04:13:02
  TRACK 191 AUDIO
    TITLE "0:"
    INDEX 01 04:15:21
  TRACK 192 AUDIO
    TITLE "19:cjc171_15796"
    INDEX 01 04:16:18
  TRACK 193 AUDIO
    TITLE "0:"
    INDEX 01 04:17:49
  TRACK 194 AUDIO
    TITLE "20:cjc171_15797"
    INDEX 01 04:18:09
  TRACK 195 AUDIO
    TITLE "0:"
    INDEX 01 04:21:39
  TRACK 196 AUDIO
    TITLE "21:cjc171_15798"
    INDEX 01 04:22:36
  TRACK 197 AUDIO
    TITLE "0:"
    INDEX 01 04:24:14
  TRACK 198 AUDIO
    TITLE "22:cjc171_15799"
    INDEX 01 04:24:55
  TRACK 199 AUDIO
    TITLE "0:"
    INDEX 01 04:26:62
  TRACK 200 AUDIO
    TITLE "23:cjc171_15800"
    INDEX 01 04:27:20
  TRACK 201 AUDIO
    TITLE "0:"
    INDEX 01 04:29:27
